<?xml version="1.0" standalone="no"?>
<!DOCTYPE svg PUBLIC "-//W3C//DTD SVG 1.1//EN" "http://www.w3.org/Graphics/SVG/1.1/DTD/svg11.dtd" >
<svg xmlns="http://www.w3.org/2000/svg">
<metadata>
Created by FontForge 20120731 at Mon Jul 31 10:02:02 2017
 By admin
</metadata>
<defs>
<font id="iconfont" horiz-adv-x="1024" >
  <font-face 
    font-family="iconfont"
    font-weight="500"
    font-stretch="normal"
    units-per-em="1024"
    panose-1="2 0 6 3 0 0 0 0 0 0"
    ascent="896"
    descent="-128"
    x-height="792"
    bbox="0 -212 1097 896.258"
    underline-thickness="0"
    underline-position="0"
    unicode-range="U+0078-E6FA"
  />
<missing-glyph 
 />
    <glyph glyph-name=".notdef" 
 />
    <glyph glyph-name=".notdef" 
 />
    <glyph glyph-name=".null" horiz-adv-x="0" 
 />
    <glyph glyph-name="nonmarkingreturn" horiz-adv-x="341" 
 />
    <glyph glyph-name="x" unicode="x" horiz-adv-x="1001" 
d="M281 543q-27 -1 -53 -1h-83q-18 0 -36.5 -6t-32.5 -18.5t-23 -32t-9 -45.5v-76h912v41q0 16 -0.5 30t-0.5 18q0 13 -5 29t-17 29.5t-31.5 22.5t-49.5 9h-133v-97h-438v97zM955 310v-52q0 -23 0.5 -52t0.5 -58t-10.5 -47.5t-26 -30t-33 -16t-31.5 -4.5q-14 -1 -29.5 -0.5
t-29.5 0.5h-32l-45 128h-439l-44 -128h-29h-34q-20 0 -45 1q-25 0 -41 9.5t-25.5 23t-13.5 29.5t-4 30v167h911zM163 247q-12 0 -21 -8.5t-9 -21.5t9 -21.5t21 -8.5q13 0 22 8.5t9 21.5t-9 21.5t-22 8.5zM316 123q-8 -26 -14 -48q-5 -19 -10.5 -37t-7.5 -25t-3 -15t1 -14.5
t9.5 -10.5t21.5 -4h37h67h81h80h64h36q23 0 34 12t2 38q-5 13 -9.5 30.5t-9.5 34.5q-5 19 -11 39h-368zM336 498v228q0 11 2.5 23t10 21.5t20.5 15.5t34 6h188q31 0 51.5 -14.5t20.5 -52.5v-227h-327z" />
    <glyph glyph-name="shanchu" unicode="&#xe66a;" 
d="M694 580q17 -2 50.5 -1.5t45.5 -1.5q34 -6 50.5 -33t12.5 -69h-54q-1 -54 -1 -298q0 -16 1 -48.5t0.5 -56.5t-2.5 -44q-3 -31 -23.5 -50.5t-50.5 -25.5q-17 -2 -38.5 -2.5t-50.5 0.5t-41 1q-29 0 -82.5 -0.5t-97 -0.5t-81.5 1q-63 1 -92 39q-3 4 -5 8.5t-4 10.5t-3 10
t-2 12l-1.5 12t-0.5 13.5v13v15v14.5v376h-52q-6 38 8.5 65t43.5 36q12 4 30.5 4.5t35.5 -0.5t38 0q-3 49 6 74.5t42 29.5q9 1 21.5 1t29 -0.5t25.5 -0.5h152h16.5h18.5t14 -1t14.5 -3t10.5 -6q6 -5 9.5 -12.5t4.5 -18.5t1.5 -19.5t0 -22.5t0.5 -21zM380 629v-50h262v52
h-261q-1 0 -1 -2zM329 469v-318q0 -6 -0.5 -19.5t-0.5 -24t0.5 -22.5t3 -20t7.5 -11q5 -4 15 -4t16 4q5 3 7.5 11t3.5 20t1 22t-0.5 23.5t-0.5 19.5v322h-51q-1 -1 -1 -3zM485 469v-308q0 -3 -1.5 -30t-0.5 -44.5t6 -24.5q5 -8 18 -11t21 3q4 4 6.5 12.5t3 20.5t0.5 23
t-1 24t-1 18v320h-51q-1 -1 0 -3zM642 469v-323q0 -5 -0.5 -20.5t-0.5 -24t1 -20t5 -18.5t10 -9q7 -3 16.5 -2t13.5 4q5 4 7 17.5t2 26t-1 31t-1 23.5v318h-51q-1 -1 -1 -3z" />
    <glyph glyph-name="yinliangguan" unicode="&#xe605;" 
d="M213 482h-145v-363h145l363 -181v725l-363 -181v0zM956 403l-51 51l-103 -102l-103 102l-51 -51l103 -103l-103 -102l51 -51l103 102l103 -102l51 51l-103 102z" />
    <glyph glyph-name="suijibofang" unicode="&#xe67c;" 
d="M518 369l-30 44q5 7 10 13q30 41 67 69.5t72 43t73.5 21t70 5.5t64.5 -7l-77 78q-10 10 0 19l19 20q10 9 19 0l147 -148l7 -3v-9v0v-47q-71 28 -133.5 35.5t-107.5 -0.5t-85 -30t-66 -47t-50 -57zM958 132v-47v0v-9l-6 -3l-147 -146q-9 -10 -19 0l-19 19q-10 10 0 19
l77 77q-33 -5 -64.5 -6t-70 5.5t-73.5 21t-71.5 43t-67.5 68.5q-28 37 -59 81t-49 70t-41 56t-41 46.5t-43 34t-52.5 26t-64 14t-83.5 6.5v56q4 1 12 2.5t33 1.5t51 -4.5t63.5 -20t73.5 -40.5t78.5 -70.5t79.5 -105.5q4 -6 13 -20q14 -24 22.5 -38t28 -40t35 -41.5t41.5 -36
t51 -31t60 -19.5t72 -8t83.5 10t96.5 29zM359 231l33 -48q-47 -55 -97.5 -90.5t-90 -47t-72 -15t-51 -0.5t-17.5 4v56q81 1 134.5 17.5t87.5 44t73 79.5z" />
    <glyph glyph-name="danquxunhuan" unicode="&#xe692;" 
d="M377 552h214l8 15q4 2 6 6l14 24q7 13 -5 20l-223 129q-13 7 -20 -5l-14 -25q-7 -13 5 -20l153 -88h-143q-128 0 -218 -90.5t-90 -217.5q0 -111 71 -196t178 -106l26 53q-93 13 -156 84t-63 165q0 104 75 178t182 74zM959 300q0 98 -55.5 176.5t-144.5 111.5l-26 -51
q76 -27 123 -91.5t47 -145.5q0 -104 -75 -178t-181 -74h-159l-9 -17l-4 -4l-14 -25q-7 -13 5 -20l223 -129q13 -7 20 6l14 24q7 13 -5 20l-155 90h88q128 0 218 90t90 217zM419 169v-35h187v35h-73v297l-116 -34v-38l75 22v-247h-73z" />
    <glyph glyph-name="bofangqixiashou" unicode="&#xe615;" 
d="M64 694v-788v0q0 -49 33 -83.5t79 -34.5q32 0 59 18v0l514 305v-215q0 -50 26.5 -79t72.5 -29t79 34.5t33 83.5v788q0 49 -33 83.5t-79 34.5t-72.5 -29t-26.5 -79v-269l-514 359v0q-27 18 -59 18q-46 0 -79 -34.5t-33 -83.5v0z" />
    <glyph glyph-name="bofangqiyinliang" unicode="&#xe616;" 
d="M582 682q-18 0 -47 -14t-49 -27l-21 -14l-232 -163h-175q-58 -1 -58 -60v-213q0 -29 13.5 -42t44.5 -13h175l232 -163q9 -6 22 -15t44 -24.5t51 -15.5q58 0 58 109v546q0 32 -18.5 70.5t-39.5 38.5zM864 610q-9 10 -22 10t-22.5 -9.5t-10 -23.5t9.5 -24q5 -6 11 -13.5
t23.5 -35.5t30.5 -56t23.5 -71.5t10.5 -86.5t-10.5 -86.5t-23.5 -72t-30.5 -56t-23.5 -35t-11 -13.5q-10 -10 -9.5 -24t9.5 -23.5t23 -9.5q13 0 22 10q6 6 15 17t28.5 42t35 65t27.5 84.5t12 101.5t-12 101.5t-27.5 84.5t-35 65t-28.5 42t-15 17z" />
    <glyph glyph-name="jingyin" unicode="&#xe628;" horiz-adv-x="1088" 
d="M877 12q-15 14 -15 32t15 32q91 91 91 217.5t-91 217.5q-15 15 -15 32.5t14.5 32t32 14.5t32.5 -15q121 -121 121 -275q0 -77 -32 -150t-89 -125q-13 -13 -32 -13q-16 -16 -32 0zM749 82q-19 0 -32 13q-15 15 -15 32.5t15 31.5q57 58 57 134.5t-57 134.5q-15 14 -15 32
t14.5 32t32 14t32.5 -14q86 -82 86 -195.5t-86 -194.5l-11.5 -11.5t-9 -6t-11.5 -2.5v0zM512 742q43 33 72.5 17.5t29.5 -69.5v-800q0 -52 -28.5 -65t-67.5 21l-230 192h-128q-53 0 -90.5 37.5t-37.5 90.5v262q0 53 37.5 90.5t90.5 37.5h122z" />
    <glyph glyph-name="bofangqikaishi" unicode="&#xe607;" 
d="M32 839v-909q0 -33 27.5 -49.5t59.5 0.5q13 7 411.5 221t431.5 233q29 17 29 49t-29 49q-25 15 -427.5 231t-417.5 224q-27 16 -56 1t-29 -50z" />
    <glyph glyph-name="bofangqitingzhi" unicode="&#xe608;" 
d="M0 896h1024v-1024h-1024v1024v0z" />
    <glyph glyph-name="bofangqiyinliang1" unicode="&#xe609;" horiz-adv-x="1097" 
d="M592 890q-27 13 -50 -7l-275 -228l-218 1v0q-20 0 -34 -14t-14 -33l-1 -451q0 -20 14 -34t34 -14h221l273 -227q13 -11 30 -11q11 0 20 5q28 12 28 43v927q0 30 -28 43v0v0zM777 652q-17 8 -35.5 1.5t-27 -24t-2 -36.5t23.5 -27q4 -2 9.5 -5.5t18 -16t22 -27.5
t17.5 -40.5t8 -55.5q0 -50 -17.5 -105t-33 -84.5t-18.5 -30.5q-18 -9 -24.5 -28t2.5 -36q13 -27 43 -27q11 0 21 5q3 2 15 16t30.5 43t35 64.5t29 84.5t12.5 98q0 47 -13.5 88t-30 65t-38.5 43.5t-31 25.5t-16 9v0v0zM926 792q-17 10 -36 6t-30 -20.5t-6.5 -36t20.5 -30.5
q6 -4 15.5 -11.5t31 -33.5t38 -56.5t29.5 -82t13 -109.5t-12 -116.5t-29 -100.5t-35.5 -76.5t-30.5 -51.5t-15 -18q-16 -11 -20 -30.5t7 -35.5q14 -22 40 -22q14 0 26 8q4 3 20 22.5t41 61t47.5 91.5t39.5 122.5t17 145.5t-18 138.5t-40 104.5t-50.5 72t-41.5 43.5t-21 15.5
v0v0z" />
    <glyph glyph-name="bofangqizanting" unicode="&#xe60a;" 
d="M884 -128h-119q-53 0 -90 37t-37 90v770q0 53 37 90t90 37h119q53 0 90 -37t37 -90v-770q0 -53 -37 -90t-90 -37zM259 -128h-119q-53 0 -90 37t-37 90v770q0 53 37 90t90 37h119q53 0 90 -37t37 -90v-770q0 -53 -37 -90t-90 -37z" />
    <glyph glyph-name="circulation" unicode="&#xe67a;" 
d="M873.5 591q-85.5 86 -206.5 86h-308v58q0 14 -8 19t-20 -3l-142 -91q-11 -8 -11 -18.5t12 -18.5l140 -87q12 -7 20.5 -2.5t8.5 18.5v59h308q93 0 159.5 -66.5t66.5 -160.5q0 -31 -8 -61q-4 -13 3 -25t20 -15q4 -2 9 -2q11 0 19.5 7t11.5 18q11 38 11 78q0 121 -85.5 207z
M819 145l-141 87q-12 7 -20.5 2.5t-8.5 -18.5v-59h-331q-94 0 -160.5 66.5t-66.5 160.5q0 67 36 123q8 11 5 24.5t-14.5 21t-25 4.5t-20.5 -14q-47 -73 -47 -159q0 -121 85.5 -207t207.5 -86h331v-58q0 -14 8.5 -19t20.5 3l141 91q12 8 12 18.5t-12 18.5z" />
    <glyph glyph-name="kaiguan" unicode="&#xe658;" 
d="M717 428h-410v0q-97 0 -165.5 68.5t-68.5 165.5t68.5 165.5t165.5 68.5h410q97 0 165.5 -68.5t68.5 -165.5t-68.5 -165.5t-165.5 -68.5zM688 808q-61 0 -104 -43t-43 -103.5t43 -103t104 -42.5v0q60 0 103 42.5t43 103t-43 103.5t-103 43v0zM307 340h410
q97 0 165.5 -68.5t68.5 -165.5t-68.5 -165.5t-165.5 -68.5h-410q-97 0 -165.5 68.5t-68.5 165.5t68.5 165.5t165.5 68.5zM336 -40q61 0 104 43t43 103.5t-43 103t-104 42.5v0q-60 0 -103 -42.5t-43 -103t43 -103.5t103 -43v0z" />
    <glyph glyph-name="qingkong" unicode="&#xe6fa;" 
d="M212 322h632q15 0 21.5 10.5t0.5 24.5l-75 162q-7 15 -22.5 25.5t-31.5 10.5h-131v237q0 16 -11 27.5t-27 11.5h-76q-16 0 -27 -11.5t-11 -27.5v-237h-135q-16 0 -32 -10.5t-22 -25.5l-75 -162q-7 -14 -0.5 -24.5t22.5 -10.5zM826 264h-582q3 -57 -6 -101.5t-41 -73.5
q-32 -28 -39.5 -59.5t5 -55t37.5 -36.5h99q62 87 79 170l4 27q-1 -12 -4 -27q-23 -151 -37 -170h72q62 87 79 170l4 27q-1 -12 -4 -27q-23 -151 -37 -170h91q62 87 79 170l4 27q-1 -12 -4 -27q-23 -151 -37 -170h91q62 87 79 170l4 27q-1 -12 -4 -27q-23 -151 -37 -170h91
q3 1 7 2.5t13.5 9.5t16.5 17.5t11.5 26.5t2.5 37q-3 18 -7.5 54.5t-6.5 51.5t-6 40t-8 45t-9 42zM826 264z" />
    <glyph glyph-name="bofangqixiashou1" unicode="&#xe504;" 
d="M960 -10v788q0 49 -33 83.5t-79 34.5q-32 0 -59 -18v0l-514 -305v215q0 50 -26.5 79t-72.5 29t-79 -34.5t-33 -83.5v-788q0 -49 33 -83.5t79 -34.5t72.5 29t26.5 79v269l514 -359q27 -18 59 -18q46 0 79 34.5t33 83.5v0v0z" />
    <glyph glyph-name="bofangqishouyeshoucang" unicode="&#xe62c;" 
d="M648 637q-69 0 -122 -46l-14 -14l-20 20q-50 43 -116 43q-73 0 -128.5 -56.5t-55.5 -153.5q0 -30 8.5 -60.5t22 -56t32.5 -51t39.5 -46t43.5 -40.5t43.5 -34.5t41 -28t34 -21t25 -14l11.5 -6.5l11 -5q7 -4 13 0l16 8l21 10.5t42.5 25.5t59.5 41t61 53t58 66t40 76t17 86
q0 94 -55.5 149t-128.5 55zM652 210q-43 -36 -94 -67q-16 -10 -32 -18q-83 -46 -180 -61q130 50 130 69q0 4 -8 9q-52 31 -94 67q-134 111 -134 221q0 73 39.5 117.5t96.5 44.5q54 0 94 -40l42 -37l42 36q40 38 94 38q58 0 97 -43t39 -113q0 -112 -132 -223z" />
    <glyph glyph-name="bofangqishouyexiazai" unicode="&#xe62d;" 
d="M313 386l183 -154q6 -5 14 -6q9 -2 18 6l183 154q8 6 9 16t-5.5 17.5t-16.5 8.5t-18 -6l-144 -121v347q0 10 -7 17t-17 7t-17 -7t-7 -17v-347l-144 122q-8 6 -18 5t-16.5 -8.5t-5.5 -17.5t9 -16zM778.5 221.5q-8.5 4.5 -18 1.5t-14.5 -12l-17 -35q-3 -6 -11 -11t-14 -5
h-384q-6 0 -14 5t-11 11l-17 35q-5 9 -14.5 12t-18 -1.5t-12 -13.5t1.5 -18l17 -36q9 -18 28.5 -30t39.5 -12h384q20 0 39.5 12t28.5 30l17 36q5 9 1.5 18t-12 13.5z" />
    <glyph glyph-name="bofangqishouyeyishoucang32" unicode="&#xe62e;" 
d="M648 637q-69 0 -122 -46l-14 -14l-20 20q-50 43 -116 43q-73 0 -128.5 -56.5t-55.5 -153.5q0 -30 8.5 -60.5t22 -56t32.5 -51t39.5 -46t43.5 -40.5t43.5 -34.5t41 -28t34 -21t25 -14l11.5 -6.5l11 -5q7 -4 13 0l16 8l21 10.5t42.5 25.5t59.5 41t61 53t58 66t40 76t17 86
q0 94 -55.5 149t-128.5 55z" />
    <glyph glyph-name="bofangqi_shouyeyixiazai_" unicode="&#xe632;" 
d="M607 119h-286q-6 0 -13 4.5t-10 10.5l-16 35q-4 9 -13 12.5t-17 -1t-11 -14t1 -18.5l17 -35q8 -18 26 -30t36 -12h302l-0.5 1t-1.5 3.5l-2 5t-2.5 6.5t-3 7t-2.5 7t-1.5 7t-1 5.5t-1 4zM292 408l1.5 1.5l1.5 1.5zM761 411q0 -1 1 -1.5t1 -1.5zM297 374l213 -183h1h-1h1
q5 -4 11 -6q13 -2 22 6l214 183q8 7 9 17t-5 18q-7 8 -17 8.5t-18 -6.5l-175 -151v442q0 10 -7 17t-17 7t-17 -7t-7 -17v-442l-176 151q-7 7 -17.5 6.5t-17.5 -7.5q-5 -9 -4 -19t8 -17zM787 297q-60 0 -102 -42t-42 -102t42 -102t102 -42t102 42t42 102t-42 102t-102 42z
M855 166l-76 -71q-13 -13 -26 0l-36 34q-6 6 -6 14t5.5 13.5t13 6t13.5 -5.5l23 -22l63 59q6 5 13.5 5t13 -6t5.5 -14t-6 -13z" />
    <glyph glyph-name="icon-prev-song" unicode="&#xe503;" 
d="M932 15v738q0 46 -30.5 78.5t-74.5 32.5q-30 0 -56 -17v0l-481 -286v202q0 46 -25 73.5t-68 27.5t-74 -32.5t-31 -78.5v-738q0 -46 31 -78.5t74 -32.5t68 27.5t25 73.5v253l481 -337q26 -17 56 -17q44 0 74.5 32.5t30.5 78.5v0v0z" />
    <glyph glyph-name="jingyin1" unicode="&#xe689;" horiz-adv-x="1090" 
d="M954 384l121 122q15 14 15 35t-14.5 35t-35.5 14t-35 -14l-122 -122l-121 122q-15 14 -35.5 14t-35 -14t-14.5 -35t14 -35l115 -122l-121 -122q-15 -14 -15 -35t14.5 -35t35.5 -14t35 14l122 122l121 -122q15 -14 35.5 -14t35 14t14.5 35t-14 35zM512 826
q43 33 72.5 17.5t29.5 -69.5v-800q0 -52 -28.5 -65t-67.5 21l-230 192h-128q-53 0 -90.5 37.5t-37.5 90.5v262q0 53 37.5 90.5t90.5 37.5h122z" />
  </font>
</defs>
</svg>
